<svg xmlns="http://www.w3.org/2000/svg" viewBox="0 0 750 471">
  <rect width="750" height="471" rx="40" fill="#006fcf"/>
  <g fill="#fff">
    <path d="M0 421.5h750v49.5H0z"/>
    <path d="M0 0h750v49.5H0z"/>
  </g>
  <g fill="#fff">
    <path d="M296.5 189.2l-30.9 71.8h-33.7l-30.9-71.8h33.7l13.6 36.5 14.5-36.5h33.7zm-89.3 0l-30.9 71.8h-33.7l-30.9-71.8h33.7l13.6 36.5 14.5-36.5h33.7zm-89.3 0l-30.9 71.8H53.3L22.4 189.2h33.7l13.6 36.5 14.5-36.5h33.7z"/>
    <path d="M727.6 189.2v71.8h-33.7v-71.8h33.7zm-89.3 0v71.8h-33.7v-71.8h33.7zm-89.3 0v71.8h-33.7v-71.8h33.7zm-89.3 0v71.8h-33.7v-71.8h33.7zm-89.3 0v71.8h-33.7v-71.8h33.7z"/>
  </g>
</svg>
