<svg xmlns="http://www.w3.org/2000/svg" viewBox="0 0 780 500">
  <rect width="780" height="500" rx="40" fill="#0079be"/>
  <g fill="#fff">
    <circle cx="260" cy="250" r="150"/>
    <circle cx="520" cy="250" r="150"/>
    <path d="M260 100c-82.8 0-150 67.2-150 150s67.2 150 150 150c35.9 0 68.9-12.6 94.6-33.6-25.7-21-42.6-52.8-42.6-88.4s16.9-67.4 42.6-88.4C328.9 112.6 295.9 100 260 100zm0 240c-49.7 0-90-40.3-90-90s40.3-90 90-90c21.5 0 41.3 7.6 56.7 20.2-15.4 12.6-25.3 31.8-25.3 53.3s9.9 40.7 25.3 53.3C301.3 332.4 281.5 340 260 340z"/>
    <path d="M520 100c-35.9 0-68.9 12.6-94.6 33.6 25.7 21 42.6 52.8 42.6 88.4s-16.9 67.4-42.6 88.4c25.7 21 58.7 33.6 94.6 33.6 82.8 0 150-67.2 150-150S602.8 100 520 100zm0 240c-21.5 0-41.3-7.6-56.7-20.2 15.4-12.6 25.3-31.8 25.3-53.3s-9.9-40.7-25.3-53.3C478.7 197.6 498.5 190 520 190c49.7 0 90 40.3 90 90s-40.3 90-90 90z"/>
  </g>
</svg>
